<?xml version="1.0" encoding="utf-8"?>
<!-- Generator: Adobe Illustrator 19.0.0, SVG Export Plug-In . SVG Version: 6.00 Build 0)  -->
<svg version="1.1" id="Layer_1" xmlns="http://www.w3.org/2000/svg" xmlns:xlink="http://www.w3.org/1999/xlink" x="0px" y="0px"
	 viewBox="0 0 595.3 841.9" style="enable-background:new 0 0 595.3 841.9;" xml:space="preserve">
<style type="text/css">
	.st0{fill:url(#XMLID_39_);}
	.st1{fill:url(#XMLID_40_);}
	.st2{fill:url(#XMLID_41_);}
	.st3{fill:url(#XMLID_42_);}
	.st4{fill:url(#XMLID_43_);}
	.st5{fill:url(#XMLID_44_);}
	.st6{fill:url(#XMLID_45_);}
	.st7{fill:#B2B6C3;}
	.st8{fill:#DEA286;}
	.st9{fill:#E9C4A2;}
	.st10{fill:#D9DDEE;}
	.st11{fill:#1D3A52;}
	.st12{fill:#DEA285;}
	.st13{fill:#3B3B40;}
	.st14{fill:#3261A3;}
	.st15{fill:#D4C3BC;}
	.st16{fill:#F4E3DC;}
	.st17{fill:#A2765F;}
	.st18{fill:#626161;}
	.st19{fill:#DFCDC6;}
	.st20{fill:#D3987A;}
</style>
<g>
	
		<linearGradient id="XMLID_39_" gradientUnits="userSpaceOnUse" x1="-1299.4288" y1="1256.8175" x2="-1512.3381" y2="779.3846" gradientTransform="matrix(0.9394 -0.3429 0.3429 0.9394 1304.0978 -1059.817)">
		<stop  offset="0" style="stop-color:#3D92C7"/>
		<stop  offset="1" style="stop-color:#FFFFFF"/>
	</linearGradient>
	<polygon id="XMLID_37_" class="st0" points="280.2,206 279.6,208 529.2,294.4 494.2,581.5 105.7,430 240.7,359.4 241.8,359.7 
		242.3,357.6 241.5,357.4 241.2,356.7 240.5,357.1 43.5,294.7 43,296.8 237.8,358.5 100.5,430.3 495.8,584.4 531.3,293.7 
		531.4,292.8 	"/>
	
		<linearGradient id="XMLID_40_" gradientUnits="userSpaceOnUse" x1="-1437.7119" y1="1029.449" x2="-1497.8097" y2="905.247" gradientTransform="matrix(0.9394 -0.3429 0.3429 0.9394 1304.0978 -1059.817)">
		<stop  offset="0" style="stop-color:#4EA7BD"/>
		<stop  offset="1" style="stop-color:#5266A6"/>
	</linearGradient>
	<path id="XMLID_36_" class="st1" d="M284.9,326.8c7.7,23.2-3.2,48.9-24.3,57.4c-21.1,8.5-44.5-3.5-52.2-26.7
		c-7.7-23.2,3.2-48.9,24.3-57.4C253.8,291.6,277.1,303.5,284.9,326.8z"/>
	
		<linearGradient id="XMLID_41_" gradientUnits="userSpaceOnUse" x1="-1097.1448" y1="1259.8887" x2="-1203.2834" y2="972.5823" gradientTransform="matrix(0.9394 -0.3429 0.3429 0.9394 1304.0978 -1059.817)">
		<stop  offset="0" style="stop-color:#4EA7BD"/>
		<stop  offset="1" style="stop-color:#5266A6"/>
	</linearGradient>
	<path id="XMLID_35_" class="st2" d="M581.7,273c10.4,31.2-4.2,65.7-32.6,77.1c-28.4,11.4-59.8-4.7-70.1-35.9
		c-10.4-31.2,4.2-65.7,32.6-77.1C539.9,225.7,571.3,241.8,581.7,273z"/>
	
		<linearGradient id="XMLID_42_" gradientUnits="userSpaceOnUse" x1="-1305.8116" y1="1316.9995" x2="-1341.2128" y2="1213.2374" gradientTransform="matrix(0.9394 -0.3429 0.3429 0.9394 1304.0978 -1059.817)">
		<stop  offset="0" style="stop-color:#4EA7BD"/>
		<stop  offset="1" style="stop-color:#5266A6"/>
	</linearGradient>
	<path id="XMLID_34_" class="st3" d="M529.2,569.2c6.9,20.8-2.8,43.8-21.7,51.3c-18.9,7.6-39.8-3.1-46.7-23.9
		c-6.9-20.8,2.8-43.8,21.7-51.3C501.4,537.8,522.3,548.4,529.2,569.2z"/>
	
		<linearGradient id="XMLID_43_" gradientUnits="userSpaceOnUse" x1="-1624.7527" y1="1030.6495" x2="-1645.027" y2="969.8267" gradientTransform="matrix(0.9394 -0.3429 0.3429 0.9394 1304.0978 -1059.817)">
		<stop  offset="0" style="stop-color:#4EA7BD"/>
		<stop  offset="1" style="stop-color:#5266A6"/>
	</linearGradient>
	<path id="XMLID_33_" class="st4" d="M121.8,422.6c3.8,11.4-1.5,23.9-11.9,28.1c-10.3,4.1-21.8-1.7-25.5-13.1
		c-3.8-11.4,1.5-23.9,11.9-28.1C106.6,405.4,118,411.3,121.8,422.6z"/>
	
		<linearGradient id="XMLID_44_" gradientUnits="userSpaceOnUse" x1="-1384.941" y1="879.3119" x2="-1412.5208" y2="795.7614" gradientTransform="matrix(0.9394 -0.3429 0.3429 0.9394 1304.0978 -1059.817)">
		<stop  offset="0" style="stop-color:#4EA7BD"/>
		<stop  offset="1" style="stop-color:#5266A6"/>
	</linearGradient>
	<path id="XMLID_32_" class="st5" d="M307,183.2c7.4,22.2-3,46.8-23.2,54.9c-20.2,8.1-42.6-3.3-49.9-25.6
		c-7.4-22.2,3-46.8,23.2-54.9C277.3,149.5,299.6,160.9,307,183.2z"/>
	
		<linearGradient id="XMLID_45_" gradientUnits="userSpaceOnUse" x1="-1630.6414" y1="882.5607" x2="-1657.1625" y2="823.0891" gradientTransform="matrix(0.9394 -0.3429 0.3429 0.9394 1304.0978 -1059.817)">
		<stop  offset="0" style="stop-color:#4EA7BD"/>
		<stop  offset="1" style="stop-color:#5266A6"/>
	</linearGradient>
	<path id="XMLID_31_" class="st6" d="M77.3,282.1c6.9,20.7-2.8,43.6-21.6,51.1c-18.8,7.5-39.6-3.1-46.5-23.8
		c-6.9-20.7,2.8-43.6,21.6-51.1C49.6,250.7,70.4,261.4,77.3,282.1z"/>
	<g>
		<path id="XMLID_30_" class="st7" d="M349.6,520.7c0,0,24.6-7.7,54.7,0l-14.4-81.2C389.9,439.5,353.9,481.4,349.6,520.7z"/>
		<g>
			<g>
				<g>
					<path id="XMLID_29_" class="st8" d="M271.7,380.7c0,0-5.5,4.4-7.2,3.8c-1.6-0.5-4.4,0.3-5.9,0.2c-1.6-0.2-5.6-2.3-7.2-1.9
						c-0.7,0.2-4.4,3.1-5.7,3.3c-1.4,0.2-4.2,0.3-4.1,1.6c0.2,1.3,2.8,2,2.8,2s-1.3,0.3-1.4,1.5c-0.3,2.3,0.8,3.2,0.8,3.2
						s-1.1,1.2-1,2.2c0.2,2.2,1.3,3,1.3,3s-0.5,1.2,0,2.6c0.6,1.8,2.3,2.1,2.3,2.1s0.2,2.5,1.5,2.8c1.2,0.3,2.3-0.1,3.4-0.2
						c1,0,9.9-3.4,15.1-8.4c5.3-5.1,11.3-8,11.3-8L271.7,380.7z"/>
				</g>
			</g>
		</g>
		<g>
			<path id="XMLID_28_" class="st9" d="M384.9,214.4c0,0,8.2-5.8,15.7,4.5c7.4,10.3,4.8,20.3,3.2,29.6c-1.5,9.2-9,30.3-5.9,39.6
				c3.2,9.3-0.9,14.1-0.9,14.1s-25.6,7.2-22.6-35.1C377.5,224.8,384.9,214.4,384.9,214.4z"/>
		</g>
		<g>
			<path id="XMLID_27_" class="st10" d="M374,294.3c0,0-9.7-1.5-16.3,3.9c-6.5,5.4-11,15.5-13,18.6c-2,3.2-25.3,31.5-26.5,32
				c-1.2,0.5-15.7,9.3-25.5,16.5c-9.8,7.1-25.2,15.7-25.2,15.7l8.4,11.3c0,0,41.2-16.2,49.8-25c9.2-9.4,51.5-55.8,51.5-55.8
				S387.8,302,374,294.3z"/>
		</g>
		<g>
			<path id="XMLID_26_" class="st11" d="M303.1,688.4c0,0-10.5,15.6-9.1,18.1c1.4,2.5,12.5,2.8,19.3,0c6.7-2.8,6.9-21.1,10-29
				c1.3-3.3-1.5-13-5.3-13.7c-3.8-0.7-8,1.4-8,1.4S313.9,676.2,303.1,688.4z"/>
		</g>
		<g>
			<g>
				<path id="XMLID_25_" class="st12" d="M309.9,665c0,0-2.2,6.6-3,13c-0.7,5.3-7.5,16.4-7.2,17.8c0.3,1.4,9,2.7,12.5-0.9
					c3.5-3.6,5.8-14.2,6.6-20.6c0.7-5.9,1.6-8.8,1.6-8.8S313.2,661.1,309.9,665z"/>
			</g>
		</g>
		<g>
			<polygon id="XMLID_24_" class="st11" points="323.5,676.1 323.5,692.4 321.6,692.4 321.6,679.8 			"/>
		</g>
		<g>
			<path id="XMLID_23_" class="st11" d="M394.8,688.6c0,0-10.2,15.3-8.7,17.8c1.4,2.5,12.5,2.8,19.3,0c6.7-2.8,6.9-21.1,10-29
				c1.3-3.3-1.5-13-5.3-13.7c-3.8-0.7-8.3,1.5-8.3,1.5S405.6,676.5,394.8,688.6z"/>
		</g>
		<g>
			<g>
				<path id="XMLID_22_" class="st12" d="M401.7,665.3c0,0-0.8,7.2-2.1,12.4c-1.3,5.1-8.2,16.8-7.9,18.2c0.3,1.4,9,2.7,12.5-0.9
					c3.5-3.6,6.3-14.2,6.6-20.6c0.3-6.4-0.8-10.5-0.8-10.5S405,661.4,401.7,665.3z"/>
			</g>
		</g>
		<g>
			<polygon id="XMLID_21_" class="st11" points="415.6,676.1 415.6,692.4 413.7,692.4 413.7,679.8 			"/>
		</g>
		<g>
			<g>
				<path id="XMLID_20_" class="st13" d="M350.9,411.4c0,0-9,46.2-11.1,57.9c-2.1,11.6-7.9,68-8.5,77.6c-0.6,9.6-9.4,45.7-9,49.1
					c0.4,3.4-13.6,71.4-13.6,71.4s14.4,4.3,16.8,1.4c2.1-2.5,22.7-64.6,22.7-81.7c0-23.7,16.2-53.8,18.3-59.1
					c19.1-49.2,15-65,17.5-68.2c2.5-3.2,2.7,2,4.2,9.1c1.5,7.1,4.6,68.3,6.4,76c1.9,7.8,0.4,34,1.5,47.3c1,13.2,2.2,72.6,2.2,72.6
					s10.4,2.6,15.4,0.1c1.4-0.7,5-66.1,5.2-81.8c0.2-15.8,0.4-37.5,0.8-44.3c3.8-65.3,9.5-74.5-1.6-120.8
					C396.8,329.2,350.9,411.4,350.9,411.4z"/>
			</g>
		</g>
		<g>
			<path id="XMLID_19_" class="st14" d="M374.3,288.2c0,0-9.4,4.9-12.7,5.6c-3.3,0.7-16,18.9-18.2,25.5c-2.2,6.6,0,16.6,4.6,28.2
				c4.6,11.7,0.3,15.6,2.4,27.2c2.1,11.7,0.1,39-0.3,45.5c-0.4,6.5,48.2,14.7,66.9-6c0,0-10.1-20.9-11.7-23.8
				c-1.6-2.9-0.3-18.6,1.2-22.6c1.4-4,11-38.3,11-38.3s7.8-26.4,0.8-32.4c-6.2-5.3-22.9-7.1-26-8.3
				C389.3,287.7,380.5,287.2,374.3,288.2z"/>
		</g>
		<g>
			<path id="XMLID_18_" class="st15" d="M371.3,311.3l-5.7-7.4l5-19.4C370.6,284.5,372.2,295.3,371.3,311.3z"/>
		</g>
		<g>
			<path id="XMLID_17_" class="st12" d="M369.8,276.2c0,0,1.9,19,1.5,25.2c0,0,9.8,10.8,21-12.6c0,0-4.7-9.7-1.2-22.8
				C394.6,252.9,369.8,276.2,369.8,276.2z"/>
		</g>
		<g>
			<polygon id="XMLID_16_" class="st12" points="371.3,301.4 371.3,311.3 382.6,302 			"/>
		</g>
		<g>
			<polygon id="XMLID_15_" class="st15" points="371.3,311.3 376,304.9 391.8,287.6 396.9,293 			"/>
		</g>
		<g>
			<polygon id="XMLID_14_" class="st16" points="365.6,303.9 358.4,306.1 370.6,284.5 			"/>
		</g>
		<g>
			<polygon id="XMLID_13_" class="st16" points="376,304.9 382.6,314.4 396.1,289.1 391.4,286.5 			"/>
		</g>
		<g>
			<path id="XMLID_12_" class="st17" d="M370.2,280.4l0.3,3.7c0,0,7.8,1.7,18-12C388.5,272.1,381.3,281.8,370.2,280.4z"/>
		</g>
		<g>
			<path id="XMLID_11_" class="st8" d="M372.2,280.7c-3.1-0.1-11.6-1.2-15.9-22.9c-5.2-26.5,6.2-40.3,16-42.8
				c9.8-2.5,18.8,1.2,23.8,15c0,0,3.7,10.8-2.3,30.1C387.9,279.3,375.5,280.8,372.2,280.7z"/>
		</g>
		<g>
			<path id="XMLID_10_" class="st9" d="M380,232.1c0,0-13.1,0.9-25.3,21c0,0-5.7-24.2,9.2-35.3c14.9-11.1,25.4-1.6,29,3.3
				c0,0,5.2,1.3,5.4,12.2c0.2,10.9,6.8,27.3-7.8,35.1c0,0,1.4-12.4,0.1-15.3C389.4,250.3,384.9,252.3,380,232.1z"/>
		</g>
		<g>
			<path id="XMLID_9_" class="st8" d="M389.9,248.4c0.7-1.9,2.5-2.6,3.5-0.6c1,2-0.2,9.9-2.8,10.7
				C387.9,259.3,388.6,252.2,389.9,248.4z"/>
		</g>
		<path id="XMLID_8_" class="st10" d="M396.1,289.1c0,0-14.8,19.5-16.4,60.5c-1.6,41,11.7,171.9,10.8,187.9L429,517
			c0,0-0.2-66.1-13.1-107.6c-15.1-48.8,2.1-63.6,3.6-93.6c0,0-0.7-22-11.8-24C397.3,290,396.1,289.1,396.1,289.1z"/>
		<path id="XMLID_7_" class="st10" d="M366.3,292.1c0,0-6,0.8-7.9,3.2c-1.9,2.5-13.8,17.6-14.7,22c-0.9,4.4-3.6,7.8,2.1,28.5
			c5.1,18.5,3.8,39.3,2.8,47.6c-1.1,8.3-19.5,120.7-18.5,123.6c1,2.9,8.7,9.8,8.7,9.8s16.5-110.9,16.3-129.4
			C354.9,378.9,348.3,323.7,366.3,292.1z"/>
		<g>
			<polygon id="XMLID_6_" class="st18" points="240.2,350.6 253.1,423.4 295.6,414.3 284.4,341.2 			"/>
			<polygon id="XMLID_5_" class="st19" points="243.4,354.1 254.8,418.8 292.5,410.7 282.6,345.8 			"/>
			<polygon id="XMLID_4_" class="st18" points="255.4,353.2 254.6,348.7 269.8,345.4 271.2,349.9 			"/>
		</g>
		<g>
			<g>
				<path id="XMLID_3_" class="st20" d="M245,389.1c0,0,7.6-2.7,9.9-1.2c2.3,1.6-0.4,2.7-0.4,2.7s2.6-1.2,3.7,1
					c1,2.2-2.2,3.3-2.2,3.3s2.2-0.3,2.5,2.2c0.3,2.6-2.6,2.9-2.6,2.9s3.3,1.4,1.2,3.8c-3.5,3.9-9.3,3.2-9.3,3.2s-1.4-0.3-1.5-2.8
					c0,0-3.4-0.6-2.3-4.7c0,0-2.9-2.9-0.3-5.2C243.7,394.3,240.8,391,245,389.1z"/>
			</g>
		</g>
		<path id="XMLID_2_" class="st12" d="M429.1,430.8c0,0,1.5,7.9-1.6,13.2c-1.2,2,0,17.4,0.1,19.3c0.1,1.6,1.4,3,2,2.7
			c0.5-0.3,0.7-8.9,1.5-11.6c0.7-2.3,1.3-3.2,1.7-2.4c0.4,0.7-0.9,13.1-1.6,17.2c-0.7,4.1,0.2,12.7,2.1,11.3
			c1.9-1.4,8.4-20.6,7.9-26.9c-0.5-6.4-2.7-14.4-2.7-14.4L429.1,430.8z"/>
		<path id="XMLID_1_" class="st10" d="M398.4,290.3c0,0,15.3-1,23,8.8c7.7,9.9,7.3,21.6,9.2,26.6c2,5.1,6.4,26.9,7.4,30.5
			c1,3.5,1.9,23.4,3.3,39.4c1.4,16,1.1,45.9,1.1,45.9l-14.7-2.9c0,0-0.6-28.5-1-45c-0.4-16.5-12.6-45.7-17.2-58.5
			C405,322.3,386.6,298.3,398.4,290.3z"/>
	</g>
</g>
</svg>
