<?xml version="1.0" encoding="utf-8"?>
<!-- Generator: Adobe Illustrator 19.0.0, SVG Export Plug-In . SVG Version: 6.00 Build 0)  -->
<svg version="1.1" id="Layer_1" xmlns="http://www.w3.org/2000/svg" xmlns:xlink="http://www.w3.org/1999/xlink" x="0px" y="0px"
	 viewBox="0 0 612 792" style="enable-background:new 0 0 612 792;" xml:space="preserve">
<style type="text/css">
	.st0{filter:url(#Adobe_OpacityMaskFilter);}
	.st1{filter:url(#Adobe_OpacityMaskFilter_1_);}
	.st2{mask:url(#SVGID_1_);fill:url(#SVGID_2_);}
	.st3{fill:url(#SVGID_3_);}
	.st4{filter:url(#Adobe_OpacityMaskFilter_2_);}
	.st5{filter:url(#Adobe_OpacityMaskFilter_3_);}
	.st6{mask:url(#SVGID_4_);fill:url(#SVGID_5_);}
	.st7{fill:url(#SVGID_6_);}
	.st8{filter:url(#Adobe_OpacityMaskFilter_4_);}
	.st9{filter:url(#Adobe_OpacityMaskFilter_5_);}
	.st10{mask:url(#SVGID_7_);fill:url(#SVGID_8_);}
	.st11{fill:url(#SVGID_9_);}
	.st12{filter:url(#Adobe_OpacityMaskFilter_6_);}
	.st13{filter:url(#Adobe_OpacityMaskFilter_7_);}
	.st14{mask:url(#SVGID_10_);fill:url(#SVGID_11_);}
	.st15{fill:url(#SVGID_12_);}
	.st16{filter:url(#Adobe_OpacityMaskFilter_8_);}
	.st17{filter:url(#Adobe_OpacityMaskFilter_9_);}
	.st18{mask:url(#SVGID_13_);fill:url(#SVGID_14_);}
	.st19{fill:url(#SVGID_15_);}
	.st20{filter:url(#Adobe_OpacityMaskFilter_10_);}
	.st21{filter:url(#Adobe_OpacityMaskFilter_11_);}
	.st22{mask:url(#SVGID_16_);fill:url(#SVGID_17_);}
	.st23{fill:url(#SVGID_18_);}
	.st24{fill:url(#SVGID_19_);}
	.st25{fill:url(#SVGID_20_);}
	.st26{filter:url(#Adobe_OpacityMaskFilter_12_);}
	.st27{filter:url(#Adobe_OpacityMaskFilter_13_);}
	.st28{mask:url(#SVGID_21_);fill:url(#SVGID_22_);}
	.st29{fill:url(#SVGID_23_);}
	.st30{filter:url(#Adobe_OpacityMaskFilter_14_);}
	.st31{filter:url(#Adobe_OpacityMaskFilter_15_);}
	.st32{mask:url(#SVGID_24_);fill:url(#SVGID_25_);}
	.st33{fill:url(#SVGID_26_);}
	.st34{fill:#696969;}
	.st35{fill:#E0D0C8;}
	.st36{fill:#DEA285;}
	.st37{fill:#2F4460;}
	.st38{fill:#DEA286;}
	.st39{fill:#CE6F50;}
	.st40{fill:#A2765F;}
	.st41{fill:#D9DDEE;}
	.st42{fill:#1F2F44;}
	.st43{fill:#4D90CB;}
	.st44{fill:#E0E1F0;}
	.st45{fill:#B7B8CC;}
	.st46{fill:#EDEBE6;}
	.st47{fill:#C5506F;}
	.st48{fill:#C7D254;}
	.st49{fill:#9F9F9D;}
	.st50{fill:#35598C;}
	.st51{fill:url(#SVGID_27_);}
	.st52{fill:url(#SVGID_28_);}
	.st53{fill:url(#SVGID_29_);}
	.st54{fill:url(#SVGID_30_);}
	.st55{fill:#0F1D2A;}
	.st56{fill:url(#SVGID_31_);}
	.st57{fill:url(#SVGID_32_);}
	.st58{filter:url(#Adobe_OpacityMaskFilter_16_);}
	.st59{filter:url(#Adobe_OpacityMaskFilter_17_);}
	.st60{mask:url(#SVGID_33_);fill:url(#SVGID_34_);}
	.st61{fill:url(#SVGID_35_);}
	.st62{fill:url(#SVGID_36_);}
	.st63{filter:url(#Adobe_OpacityMaskFilter_18_);}
	.st64{filter:url(#Adobe_OpacityMaskFilter_19_);}
	.st65{mask:url(#SVGID_37_);fill:url(#SVGID_38_);}
	.st66{fill:url(#SVGID_39_);}
	.st67{fill:url(#SVGID_40_);}
	.st68{fill:#5175A6;}
</style>
<g>
	<defs>
		<filter id="Adobe_OpacityMaskFilter" filterUnits="userSpaceOnUse" x="412.9" y="266.7" width="10.8" height="55">
			<feFlood  style="flood-color:white;flood-opacity:1" result="back"/>
			<feBlend  in="SourceGraphic" in2="back" mode="normal"/>
		</filter>
	</defs>
	<mask maskUnits="userSpaceOnUse" x="412.9" y="266.7" width="10.8" height="55" id="SVGID_1_">
		<g class="st0">
			<defs>
				<filter id="Adobe_OpacityMaskFilter_1_" filterUnits="userSpaceOnUse" x="412.9" y="266.7" width="10.8" height="55">
					<feFlood  style="flood-color:white;flood-opacity:1" result="back"/>
					<feBlend  in="SourceGraphic" in2="back" mode="normal"/>
				</filter>
			</defs>
			<mask maskUnits="userSpaceOnUse" x="412.9" y="266.7" width="10.8" height="55" id="SVGID_1_">
				<g class="st1">
				</g>
			</mask>
			<linearGradient id="SVGID_2_" gradientUnits="userSpaceOnUse" x1="418.3506" y1="340.5415" x2="418.3506" y2="152.8941">
				<stop  offset="0" style="stop-color:#808080"/>
				<stop  offset="1" style="stop-color:#000000"/>
			</linearGradient>
			<path class="st2" d="M423.8,266.7h-10.8v1.3h0.7v49c0,0,0,4.7,4.7,4.7c4.7,0,4.7-4.7,4.7-4.7v-49h0.7V266.7z"/>
		</g>
	</mask>
	<linearGradient id="SVGID_3_" gradientUnits="userSpaceOnUse" x1="418.3506" y1="340.5415" x2="418.3506" y2="152.8941">
		<stop  offset="0" style="stop-color:#3D92C7"/>
		<stop  offset="1" style="stop-color:#FFFFFF"/>
	</linearGradient>
	<path class="st3" d="M423.8,266.7h-10.8v1.3h0.7v49c0,0,0,4.7,4.7,4.7c4.7,0,4.7-4.7,4.7-4.7v-49h0.7V266.7z"/>
	<defs>
		<filter id="Adobe_OpacityMaskFilter_2_" filterUnits="userSpaceOnUse" x="414.5" y="285.6" width="7.8" height="35">
			<feFlood  style="flood-color:white;flood-opacity:1" result="back"/>
			<feBlend  in="SourceGraphic" in2="back" mode="normal"/>
		</filter>
	</defs>
	<mask maskUnits="userSpaceOnUse" x="414.5" y="285.6" width="7.8" height="35" id="SVGID_4_">
		<g class="st4">
			<defs>
				<filter id="Adobe_OpacityMaskFilter_3_" filterUnits="userSpaceOnUse" x="414.5" y="285.6" width="7.8" height="35">
					<feFlood  style="flood-color:white;flood-opacity:1" result="back"/>
					<feBlend  in="SourceGraphic" in2="back" mode="normal"/>
				</filter>
			</defs>
			<mask maskUnits="userSpaceOnUse" x="414.5" y="285.6" width="7.8" height="35" id="SVGID_4_">
				<g class="st5">
				</g>
			</mask>
			
				<linearGradient id="SVGID_5_" gradientUnits="userSpaceOnUse" x1="387.985" y1="325.331" x2="387.985" y2="275.7943" gradientTransform="matrix(1 0 0 1 30.3646 0)">
				<stop  offset="0" style="stop-color:#000000"/>
				<stop  offset="0.2021" style="stop-color:#FFFFFF"/>
				<stop  offset="1" style="stop-color:#FFFFFF"/>
			</linearGradient>
			<path class="st6" d="M414.5,285.6v31.1c0,0,0,3.9,3.9,3.9c3.9,0,3.9-3.9,3.9-3.9v-31.1H414.5z"/>
		</g>
	</mask>
	
		<linearGradient id="SVGID_6_" gradientUnits="userSpaceOnUse" x1="387.985" y1="325.331" x2="387.985" y2="275.7943" gradientTransform="matrix(1 0 0 1 30.3646 0)">
		<stop  offset="0" style="stop-color:#4DA7C1"/>
		<stop  offset="0.2021" style="stop-color:#2291BB"/>
		<stop  offset="1" style="stop-color:#5CA25D"/>
	</linearGradient>
	<path class="st7" d="M414.5,285.6v31.1c0,0,0,3.9,3.9,3.9c3.9,0,3.9-3.9,3.9-3.9v-31.1H414.5z"/>
	<defs>
		<filter id="Adobe_OpacityMaskFilter_4_" filterUnits="userSpaceOnUse" x="445.3" y="257.8" width="10.8" height="63.9">
			<feFlood  style="flood-color:white;flood-opacity:1" result="back"/>
			<feBlend  in="SourceGraphic" in2="back" mode="normal"/>
		</filter>
	</defs>
	<mask maskUnits="userSpaceOnUse" x="445.3" y="257.8" width="10.8" height="63.9" id="SVGID_7_">
		<g class="st8">
			<defs>
				<filter id="Adobe_OpacityMaskFilter_5_" filterUnits="userSpaceOnUse" x="445.3" y="257.8" width="10.8" height="63.9">
					<feFlood  style="flood-color:white;flood-opacity:1" result="back"/>
					<feBlend  in="SourceGraphic" in2="back" mode="normal"/>
				</filter>
			</defs>
			<mask maskUnits="userSpaceOnUse" x="445.3" y="257.8" width="10.8" height="63.9" id="SVGID_7_">
				<g class="st9">
				</g>
			</mask>
			<linearGradient id="SVGID_8_" gradientUnits="userSpaceOnUse" x1="450.7032" y1="340.5414" x2="450.7032" y2="152.8956">
				<stop  offset="0" style="stop-color:#808080"/>
				<stop  offset="1" style="stop-color:#000000"/>
			</linearGradient>
			<path class="st10" d="M456.1,257.8h-10.8v1.3h0.7v58c0,0,0,4.7,4.7,4.7c4.7,0,4.7-4.7,4.7-4.7v-58h0.7V257.8z"/>
		</g>
	</mask>
	<linearGradient id="SVGID_9_" gradientUnits="userSpaceOnUse" x1="450.7032" y1="340.5414" x2="450.7032" y2="152.8956">
		<stop  offset="0" style="stop-color:#3D92C7"/>
		<stop  offset="1" style="stop-color:#FFFFFF"/>
	</linearGradient>
	<path class="st11" d="M456.1,257.8h-10.8v1.3h0.7v58c0,0,0,4.7,4.7,4.7c4.7,0,4.7-4.7,4.7-4.7v-58h0.7V257.8z"/>
	<defs>
		<filter id="Adobe_OpacityMaskFilter_6_" filterUnits="userSpaceOnUse" x="446.8" y="280.3" width="7.8" height="40.3">
			<feFlood  style="flood-color:white;flood-opacity:1" result="back"/>
			<feBlend  in="SourceGraphic" in2="back" mode="normal"/>
		</filter>
	</defs>
	<mask maskUnits="userSpaceOnUse" x="446.8" y="280.3" width="7.8" height="40.3" id="SVGID_10_">
		<g class="st12">
			<defs>
				<filter id="Adobe_OpacityMaskFilter_7_" filterUnits="userSpaceOnUse" x="446.8" y="280.3" width="7.8" height="40.3">
					<feFlood  style="flood-color:white;flood-opacity:1" result="back"/>
					<feBlend  in="SourceGraphic" in2="back" mode="normal"/>
				</filter>
			</defs>
			<mask maskUnits="userSpaceOnUse" x="446.8" y="280.3" width="7.8" height="40.3" id="SVGID_10_">
				<g class="st13">
				</g>
			</mask>
			
				<linearGradient id="SVGID_11_" gradientUnits="userSpaceOnUse" x1="420.3376" y1="327.4787" x2="420.3376" y2="258.1596" gradientTransform="matrix(1 0 0 1 30.3646 0)">
				<stop  offset="0" style="stop-color:#000000"/>
				<stop  offset="0.2021" style="stop-color:#FFFFFF"/>
				<stop  offset="1" style="stop-color:#FFFFFF"/>
			</linearGradient>
			<path class="st14" d="M446.8,280.3v36.4c0,0,0,3.9,3.9,3.9c3.9,0,3.9-3.9,3.9-3.9v-36.4H446.8z"/>
		</g>
	</mask>
	
		<linearGradient id="SVGID_12_" gradientUnits="userSpaceOnUse" x1="420.3376" y1="327.4787" x2="420.3376" y2="258.1596" gradientTransform="matrix(1 0 0 1 30.3646 0)">
		<stop  offset="0" style="stop-color:#4DA7C1"/>
		<stop  offset="0.2021" style="stop-color:#4388C6"/>
		<stop  offset="1" style="stop-color:#975496"/>
	</linearGradient>
	<path class="st15" d="M446.8,280.3v36.4c0,0,0,3.9,3.9,3.9c3.9,0,3.9-3.9,3.9-3.9v-36.4H446.8z"/>
	<defs>
		<filter id="Adobe_OpacityMaskFilter_8_" filterUnits="userSpaceOnUse" x="429.1" y="275.5" width="10.8" height="46.2">
			<feFlood  style="flood-color:white;flood-opacity:1" result="back"/>
			<feBlend  in="SourceGraphic" in2="back" mode="normal"/>
		</filter>
	</defs>
	<mask maskUnits="userSpaceOnUse" x="429.1" y="275.5" width="10.8" height="46.2" id="SVGID_13_">
		<g class="st16">
			<defs>
				<filter id="Adobe_OpacityMaskFilter_9_" filterUnits="userSpaceOnUse" x="429.1" y="275.5" width="10.8" height="46.2">
					<feFlood  style="flood-color:white;flood-opacity:1" result="back"/>
					<feBlend  in="SourceGraphic" in2="back" mode="normal"/>
				</filter>
			</defs>
			<mask maskUnits="userSpaceOnUse" x="429.1" y="275.5" width="10.8" height="46.2" id="SVGID_13_">
				<g class="st17">
				</g>
			</mask>
			<linearGradient id="SVGID_14_" gradientUnits="userSpaceOnUse" x1="434.5264" y1="340.5414" x2="434.5264" y2="152.8945">
				<stop  offset="0" style="stop-color:#808080"/>
				<stop  offset="1" style="stop-color:#000000"/>
			</linearGradient>
			<path class="st18" d="M439.9,275.5h-10.8v1.3h0.7V317c0,0,0,4.7,4.7,4.7c4.7,0,4.7-4.7,4.7-4.7v-40.3h0.7V275.5z"/>
		</g>
	</mask>
	<linearGradient id="SVGID_15_" gradientUnits="userSpaceOnUse" x1="434.5264" y1="340.5414" x2="434.5264" y2="152.8945">
		<stop  offset="0" style="stop-color:#3D92C7"/>
		<stop  offset="1" style="stop-color:#FFFFFF"/>
	</linearGradient>
	<path class="st19" d="M439.9,275.5h-10.8v1.3h0.7V317c0,0,0,4.7,4.7,4.7c4.7,0,4.7-4.7,4.7-4.7v-40.3h0.7V275.5z"/>
	<defs>
		<filter id="Adobe_OpacityMaskFilter_10_" filterUnits="userSpaceOnUse" x="430.6" y="291.7" width="7.8" height="28.8">
			<feFlood  style="flood-color:white;flood-opacity:1" result="back"/>
			<feBlend  in="SourceGraphic" in2="back" mode="normal"/>
		</filter>
	</defs>
	<mask maskUnits="userSpaceOnUse" x="430.6" y="291.7" width="7.8" height="28.8" id="SVGID_16_">
		<g class="st20">
			<defs>
				<filter id="Adobe_OpacityMaskFilter_11_" filterUnits="userSpaceOnUse" x="430.6" y="291.7" width="7.8" height="28.8">
					<feFlood  style="flood-color:white;flood-opacity:1" result="back"/>
					<feBlend  in="SourceGraphic" in2="back" mode="normal"/>
				</filter>
			</defs>
			<mask maskUnits="userSpaceOnUse" x="430.6" y="291.7" width="7.8" height="28.8" id="SVGID_16_">
				<g class="st21">
				</g>
			</mask>
			
				<linearGradient id="SVGID_17_" gradientUnits="userSpaceOnUse" x1="404.1613" y1="328.1498" x2="404.1613" y2="278.4411" gradientTransform="matrix(1 0 0 1 30.3646 0)">
				<stop  offset="0" style="stop-color:#000000"/>
				<stop  offset="0.2021" style="stop-color:#FFFFFF"/>
				<stop  offset="1" style="stop-color:#FFFFFF"/>
			</linearGradient>
			<path class="st22" d="M430.6,291.7v24.9c0,0,0,3.9,3.9,3.9c3.9,0,3.9-3.9,3.9-3.9v-24.9H430.6z"/>
		</g>
	</mask>
	
		<linearGradient id="SVGID_18_" gradientUnits="userSpaceOnUse" x1="404.1613" y1="328.1498" x2="404.1613" y2="278.4411" gradientTransform="matrix(1 0 0 1 30.3646 0)">
		<stop  offset="0" style="stop-color:#4DA7C1"/>
		<stop  offset="0.2021" style="stop-color:#C34788"/>
		<stop  offset="1" style="stop-color:#C2458E"/>
	</linearGradient>
	<path class="st23" d="M430.6,291.7v24.9c0,0,0,3.9,3.9,3.9c3.9,0,3.9-3.9,3.9-3.9v-24.9H430.6z"/>
	<linearGradient id="SVGID_19_" gradientUnits="userSpaceOnUse" x1="780.7117" y1="242.3008" x2="186.4824" y2="242.3008">
		<stop  offset="0" style="stop-color:#3D92C7"/>
		<stop  offset="1" style="stop-color:#FFFFFF"/>
	</linearGradient>
	<rect x="361.7" y="238.5" class="st24" width="243.9" height="7.7"/>
	<linearGradient id="SVGID_20_" gradientUnits="userSpaceOnUse" x1="780.7117" y1="331.3134" x2="186.4824" y2="331.3134">
		<stop  offset="0" style="stop-color:#3D92C7"/>
		<stop  offset="1" style="stop-color:#FFFFFF"/>
	</linearGradient>
	<rect x="361.7" y="327.5" class="st25" width="243.9" height="7.7"/>
	<defs>
		<filter id="Adobe_OpacityMaskFilter_12_" filterUnits="userSpaceOnUse" x="524.2" y="157" width="51" height="81.5">
			<feFlood  style="flood-color:white;flood-opacity:1" result="back"/>
			<feBlend  in="SourceGraphic" in2="back" mode="normal"/>
		</filter>
	</defs>
	<mask maskUnits="userSpaceOnUse" x="524.2" y="157" width="51" height="81.5" id="SVGID_21_">
		<g class="st26">
			<defs>
				<filter id="Adobe_OpacityMaskFilter_13_" filterUnits="userSpaceOnUse" x="524.2" y="157" width="51" height="81.5">
					<feFlood  style="flood-color:white;flood-opacity:1" result="back"/>
					<feBlend  in="SourceGraphic" in2="back" mode="normal"/>
				</filter>
			</defs>
			<mask maskUnits="userSpaceOnUse" x="524.2" y="157" width="51" height="81.5" id="SVGID_21_">
				<g class="st27">
				</g>
			</mask>
			<linearGradient id="SVGID_22_" gradientUnits="userSpaceOnUse" x1="549.6569" y1="254.9826" x2="549.6569" y2="80.468">
				<stop  offset="0" style="stop-color:#808080"/>
				<stop  offset="1" style="stop-color:#000000"/>
			</linearGradient>
			<path class="st28" d="M574.2,228.2l-18.6-32.3c-0.1-0.1-0.2-0.3-0.3-0.4v-33.3h1.4V157h-14.1v5.2h1.4v33.3
				c-0.1,0.1-0.2,0.3-0.3,0.4l-18.6,32.3c-2.6,4.6,0.7,10.3,6,10.3h18.6h18.6C573.5,238.5,576.9,232.7,574.2,228.2z"/>
		</g>
	</mask>
	<linearGradient id="SVGID_23_" gradientUnits="userSpaceOnUse" x1="549.6569" y1="254.9826" x2="549.6569" y2="80.468">
		<stop  offset="0" style="stop-color:#3D92C7"/>
		<stop  offset="1" style="stop-color:#FFFFFF"/>
	</linearGradient>
	<path class="st29" d="M574.2,228.2l-18.6-32.3c-0.1-0.1-0.2-0.3-0.3-0.4v-33.3h1.4V157h-14.1v5.2h1.4v33.3
		c-0.1,0.1-0.2,0.3-0.3,0.4l-18.6,32.3c-2.6,4.6,0.7,10.3,6,10.3h18.6h18.6C573.5,238.5,576.9,232.7,574.2,228.2z"/>
	<defs>
		<filter id="Adobe_OpacityMaskFilter_14_" filterUnits="userSpaceOnUse" x="454.7" y="165.5" width="57.9" height="73">
			<feFlood  style="flood-color:white;flood-opacity:1" result="back"/>
			<feBlend  in="SourceGraphic" in2="back" mode="normal"/>
		</filter>
	</defs>
	<mask maskUnits="userSpaceOnUse" x="454.7" y="165.5" width="57.9" height="73" id="SVGID_24_">
		<g class="st30">
			<defs>
				<filter id="Adobe_OpacityMaskFilter_15_" filterUnits="userSpaceOnUse" x="454.7" y="165.5" width="57.9" height="73">
					<feFlood  style="flood-color:white;flood-opacity:1" result="back"/>
					<feBlend  in="SourceGraphic" in2="back" mode="normal"/>
				</filter>
			</defs>
			<mask maskUnits="userSpaceOnUse" x="454.7" y="165.5" width="57.9" height="73" id="SVGID_24_">
				<g class="st31">
				</g>
			</mask>
			<linearGradient id="SVGID_25_" gradientUnits="userSpaceOnUse" x1="483.6514" y1="246.0181" x2="483.6514" y2="97.0633">
				<stop  offset="0" style="stop-color:#808080"/>
				<stop  offset="1" style="stop-color:#000000"/>
			</linearGradient>
			<path class="st32" d="M511.5,229.1l-21.1-29.4c-0.3-0.4-0.7-0.8-1.1-1.1v-27.9h1.4v-5.2h-14.1v5.2h1.4v27.9
				c-0.4,0.3-0.8,0.7-1.1,1.1l-21.1,29.4c-3,4.2,0.8,9.4,6.8,9.4h21.1h21.1C510.8,238.5,514.5,233.3,511.5,229.1z"/>
		</g>
	</mask>
	<linearGradient id="SVGID_26_" gradientUnits="userSpaceOnUse" x1="483.6514" y1="246.0181" x2="483.6514" y2="97.0633">
		<stop  offset="0" style="stop-color:#3D92C7"/>
		<stop  offset="1" style="stop-color:#FFFFFF"/>
	</linearGradient>
	<path class="st33" d="M511.5,229.1l-21.1-29.4c-0.3-0.4-0.7-0.8-1.1-1.1v-27.9h1.4v-5.2h-14.1v5.2h1.4v27.9
		c-0.4,0.3-0.8,0.7-1.1,1.1l-21.1,29.4c-3,4.2,0.8,9.4,6.8,9.4h21.1h21.1C510.8,238.5,514.5,233.3,511.5,229.1z"/>
	<g>
		<g>
			<polygon class="st34" points="53.9,498.8 25.8,634.8 19.6,634.8 43.4,498.5 			"/>
		</g>
	</g>
	<g>
		<g>
			<polygon class="st34" points="84.6,498.8 56.4,634.8 50.2,634.8 74.1,498.5 			"/>
		</g>
	</g>
	<g>
		<g>
			<polygon class="st34" points="134.2,498.8 162.3,634.8 168.5,634.8 144.7,498.5 			"/>
		</g>
	</g>
	<g>
		<g>
			<path class="st35" d="M160.8,499.9H39.6c0,0-8.4-0.2-14.1-25.2C19.2,446.6,6.3,352.6,6.3,352.6s3.4-8.7,56.7-7.6l95.4,123.8
				C158.4,468.8,161.7,488.3,160.8,499.9z"/>
		</g>
	</g>
	<g>
		<path class="st36" d="M282.3,598c0,0,4,6,6.9,8.1c2.9,2.1,18.5,10.7,21.2,11.1c2.7,0.4,16.8,2,17.7,6.7c0.8,4.8-10.7,7.2-24.7,6.5
			c-14-0.7-33.5,1.8-35.3,0.1c-1.8-1.7-2.8-12.5-1.3-19.3c1.5-6.9,0.8-13,0.8-13L282.3,598z"/>
		<path class="st37" d="M310.4,617.2c0,0-7.3,4.5-17.3,2.9c-10-1.5-23.4-3.6-27.1-2.4c0,0-0.2,10.2,2,12.7
			c2.2,2.5,29.3-0.3,31.3-0.2c2,0,29.3,2.9,28.8-6.3C328.1,623.9,330.8,619.2,310.4,617.2z"/>
		<path class="st36" d="M210.6,593.5c0,0,1.2,5.7,2.3,7.6c1.1,2,9.5,16.8,12.9,18c3.4,1.1,15,2.4,13.6,8.4c-1.4,6-26.1,6-28.8,1.1
			c-2.7-4.9-23.9-21.6-24.9-27.4c-1-5.8,4.3-16.7,11.9-20.3C205.5,577.2,210.6,593.5,210.6,593.5z"/>
		<path class="st36" d="M239.5,627.6c-1.4,6-26.1,6-28.8,1.1c-2.7-4.9-23.9-21.6-24.9-27.4c-0.4-2.5,0.3-6,2-9.4
			c2.1-4.5,5.7-8.8,9.9-10.9c7.8-3.8,13,12.6,13,12.6s1.2,5.7,2.3,7.6c1.1,2,9.5,16.8,12.9,18C229.2,620.3,240.9,621.5,239.5,627.6z
			"/>
		<path class="st37" d="M239.5,627.6c-1.4,6-26.1,6-28.8,1.1c-2.7-4.9-23.9-21.6-24.9-27.4c-0.4-2.5,0.3-6,2-9.4
			c3,0.2,25.5,26,30.1,28.2c4.6,2.2,8-1,8-1C229.2,620.3,240.9,621.5,239.5,627.6z"/>
		<path class="st38" d="M213.2,385.4c0,0,15.8-4.9,19.9-7.7c4.2-2.9,31.9,8.8,32.3,11.4c0.5,2.6-0.1,3.9-0.1,3.9l-53.5,3.5
			L213.2,385.4z"/>
		<path class="st37" d="M259.6,480c0,0-13,29.2-22.2,50c-1.6,3.5-3,6.8-4.3,9.6c-1.5,3.3-2.7,6.1-3.6,8
			c-5.9,13.3-16.5,45.9-16.5,45.9s-16.4-3-17-12.3c0,0,12.1-20.3,12.1-34.4c0-14.1,1.9-55.6,15.4-64.6
			C239.9,471.3,250.6,469.2,259.6,480z"/>
		<path class="st37" d="M139.7,424.6c0,0,2.7,2.7,5,3.4c2.3,0.6,41,3.6,58.9,9.5c17.9,5.9,41.7,9.7,46.1,14.7
			c4.4,5,11.8,32.8,11.6,38.1c-0.2,5.3,20.2,100.8,22.2,107.7c1.1,3.7-16.8,2.6-16.8,2.6s-24-59.6-28.7-69.3
			c-8.6-17.8-9-39.6-12.2-42.9c-3.2-3.4-38.3-10.9-58.5-10.9c-20.2,0-65.4,1.7-70.3-1.1c-4.8-2.7-34.7-22.6-22.1-49.3
			C87.5,400.3,139.7,424.6,139.7,424.6z"/>
		<path class="st39" d="M186.9,264c0,0-17.1,46.5-28.3,60.6c-11.3,14.1-6.7-38.2-6.7-38.2S171.5,256,186.9,264z"/>
		<path class="st39" d="M194.5,260.9c0,0,10.3-34.6-29-36.8c-38.9-2.2-24.5,52.7-33.2,62.3c-8.7,9.6-18,17.4-21.1,28.2
			c0,0-5.6,15.8,1,34.7C121.1,374.8,166.4,246.6,194.5,260.9z"/>
		<path class="st36" d="M174,233c7.5,1.8,22.8,10.3,19.6,30.6c0,0-2.1,5.1-4.6,8.9c-2.5,3.8-2.3,17.1-3.5,17.4
			c-1.1,0.3-5.4-0.1-5.4-0.1s-8.2,12.1-12.9,10.6c-4.7-1.5-21.4-10.3-24.9-29.4C138.9,252,143.7,225.7,174,233z"/>
		<path class="st36" d="M162.7,292.5c0,0-1.1,1.7-2.6,4.3c-0.7,1.3-1.6,2.9-2.4,4.5c-2.3,4.6-4.4,10.2-4.3,14.3
			c0,0-11.4,0.6-15.3-16.5c0,0,8.1-14.8,6.3-25.7C142.6,262.6,162.7,292.5,162.7,292.5z"/>
		<path class="st39" d="M193.6,263.6c0,0-14.4,4.7-26.8,2.9c-12.4-1.8-23.6,8.3-23.6,8.3s-11.5-28,8.5-42.2
			C171.7,218.4,202.8,241.5,193.6,263.6z"/>
		<path class="st36" d="M162,264.5c0.6-2.3-1-6.5-5.6-4.5c-4.7,2.1-2.8,14.5,0.6,14.3C160.4,274.1,161.4,266.9,162,264.5z"/>
		<path class="st40" d="M160.1,296.8c-0.7,1.3-1.6,2.9-2.4,4.5c-7.9-8.9-10.5-17.8-10.5-17.8C151.2,290.1,160.1,296.8,160.1,296.8z"
			/>
		<path class="st41" d="M172.2,361c-5.1,9.5-11.3,8.3-13.1,15.9c-1.8,7.6,0.2,8.9-7.1,19.5c-1.3,2-2.6,4.2-3.8,6.5
			c-0.1,0.3-0.3,0.5-0.4,0.8c-0.6,1.3-1.3,2.6-1.8,3.9c-1.1,2.4,0.8-2.2,0,0c-2.1,5.7-2.5,17.7-2.5,17.7s-42.9,10.4-68-0.3
			c0,0,13.9-24.4,20.5-33c6.5-8.6,16-57.9,17.5-68.2c1.5-10.3,15.4-30.4,27.2-29.9l15.5,10.9c0,0,10.4,27.4,13.3,31.6
			C172.4,340.6,177.4,351.4,172.2,361z"/>
		<path class="st41" d="M136.4,297.5c6.5-0.5,20.2,3.6,20.5,21.2c0.3,17.6,1.3,29.5,0.7,34.2c-0.6,4.7-2,36-2,36s14.1-0.4,21.7-0.5
			c11.5-0.2,37.9-3.6,37.9-3.6v18.8c0,0-62,13.5-68.3,11c-6.3-2.5-11.6-26.7-13.7-36.2c-2.2-9.5-8.3-47.5-9.9-51.4
			C121.7,323,119.5,298.7,136.4,297.5z"/>
		<path class="st41" d="M143.5,425.3c0,0-4.5,92-8.4,93.9c-5.1,2.5-53.5-8.1-65.5-11.6c-9.1-2.6-2.9-67.3,5.9-82.5
			C84.4,409.8,143.5,425.3,143.5,425.3z"/>
		<path class="st42" d="M237.4,530c-1.6,3.5-3,6.8-4.3,9.6c-4.8-15.3-4.4-41-4.4-41C231.6,516.6,237.3,529.8,237.4,530z"/>
	</g>
	
		<rect x="238.6" y="353.8" transform="matrix(0.8662 -0.4998 0.4998 0.8662 -152.7794 169.5064)" class="st43" width="3" height="32.3"/>
	<g>
		<g>
			<rect x="238.2" y="396.3" class="st44" width="11.3" height="238.4"/>
		</g>
	</g>
	<g>
		<g>
			<rect x="231.6" y="630.7" class="st44" width="24.4" height="4.1"/>
		</g>
	</g>
	<g>
		<g>
			<rect x="495" y="396.3" class="st44" width="11.3" height="238.4"/>
		</g>
	</g>
	<g>
		<g>
			<rect x="488.5" y="630.7" class="st44" width="24.4" height="4.1"/>
		</g>
	</g>
	<g>
		<g>
			<rect x="207.1" y="392.4" class="st45" width="312.7" height="8"/>
		</g>
	</g>
	<g>
		<g>
			<path class="st46" d="M298.2,345.6V344H288v1.6h0.6V381c0,0-0.2,4.5,4.5,4.5c4.7,0,4.5-4.5,4.5-4.5v-35.4H298.2z"/>
			<path class="st46" d="M310.4,345.6V344h-10.2v1.6h0.6V381c0,0-0.2,4.5,4.5,4.5c4.7,0,4.5-4.5,4.5-4.5v-35.4H310.4z"/>
			<path class="st46" d="M322.7,345.6V344h-10.2v1.6h0.6V381c0,0-0.2,4.5,4.5,4.5c4.7,0,4.5-4.5,4.5-4.5v-35.4H322.7z"/>
			<path class="st43" d="M290,356.1v24.6c0,0-0.1,3.1,3.1,3.1c3.2,0,3.1-3.1,3.1-3.1v-24.6H290z"/>
			<path class="st47" d="M302.2,360.3v20.9c0,0-0.1,2.7,3.1,2.7c3.2,0,3.1-2.7,3.1-2.7v-20.9H302.2z"/>
			<path class="st48" d="M314.4,353.2v27.2c0,0-0.1,3.5,3.1,3.5c3.2,0,3.1-3.5,3.1-3.5v-27.2H314.4z"/>
		</g>
		<rect x="288" y="348" class="st49" width="51.2" height="2.4"/>
		<rect x="333.8" y="333.6" class="st49" width="2.9" height="55.7"/>
		<rect x="328.7" y="389.3" class="st49" width="13" height="3"/>
		<g>
			<g>
				
					<rect x="353.6" y="345.5" transform="matrix(0.8408 0.5414 -0.5414 0.8408 246.7098 -138.0524)" class="st50" width="8.9" height="9.7"/>
				
					<rect x="379.3" y="305.6" transform="matrix(0.8408 0.5414 -0.5414 0.8408 229.1944 -158.323)" class="st50" width="8.9" height="9.7"/>
				
					<rect x="382.5" y="302.6" transform="matrix(0.8408 0.5413 -0.5413 0.8408 227.8398 -159.8165)" class="st50" width="6.3" height="9.7"/>
				<linearGradient id="SVGID_27_" gradientUnits="userSpaceOnUse" x1="352.8653" y1="329.6695" x2="389.8672" y2="329.6695">
					<stop  offset="0" style="stop-color:#4EA7BD"/>
					<stop  offset="1" style="stop-color:#5266A6"/>
				</linearGradient>
				<polygon class="st51" points="362.5,354 352.9,347.8 380.2,305.3 389.9,311.6 				"/>
			</g>
			<circle class="st50" cx="371.4" cy="329.2" r="3.7"/>
			<g>
				<linearGradient id="SVGID_28_" gradientUnits="userSpaceOnUse" x1="361.7227" y1="357.2446" x2="382.749" y2="357.2446">
					<stop  offset="0" style="stop-color:#4EA7BD"/>
					<stop  offset="1" style="stop-color:#5266A6"/>
				</linearGradient>
				<path class="st52" d="M363.7,378.1l-2-4.5c9.4-4.1,14.7-9.2,15.8-15.2c1.8-9.2-6.4-17.5-6.4-17.6l2.7-4.3
					c0.4,0.4,10.8,11,8.6,22.8C381,366.9,374.7,373.3,363.7,378.1z"/>
			</g>
			<linearGradient id="SVGID_29_" gradientUnits="userSpaceOnUse" x1="341.6806" y1="405.2577" x2="404.4333" y2="290.1689">
				<stop  offset="0" style="stop-color:#4EA7BD"/>
				<stop  offset="1" style="stop-color:#5266A6"/>
			</linearGradient>
			<polygon class="st53" points="363,380.1 351.3,373.9 354.2,368.4 365.9,374.6 			"/>
			
				<rect x="347.7" y="367.1" transform="matrix(0.8858 0.464 -0.464 0.8858 211.0941 -122.3815)" class="st50" width="13.2" height="1.3"/>
			<rect x="352.1" y="385.4" class="st50" width="37.5" height="7"/>
			<linearGradient id="SVGID_30_" gradientUnits="userSpaceOnUse" x1="352.9141" y1="411.3775" x2="415.6587" y2="296.3034">
				<stop  offset="0" style="stop-color:#4EA7BD"/>
				<stop  offset="1" style="stop-color:#5266A6"/>
			</linearGradient>
			<polygon class="st54" points="375.9,385.4 361.1,385.4 365.4,372.2 375.9,370.5 			"/>
			<circle class="st50" cx="369.9" cy="376.6" r="3.7"/>
		</g>
	</g>
	<g>
		<g>
			<path class="st55" d="M143.4,569.9l-26.8,0c-2.7,0-4.9-2.2-4.9-4.9l0-16.9c0-2.7,2.2-4.9,4.9-4.9l26.8,0c2.7,0,4.9,2.2,4.9,4.9
				l0,16.9C148.3,567.7,146.1,569.9,143.4,569.9z M116.6,546.5c-0.9,0-1.6,0.7-1.6,1.6l0,16.9c0,0.9,0.7,1.6,1.6,1.6l26.8,0
				c0.9,0,1.6-0.7,1.6-1.6l0-16.9c0-0.9-0.7-1.6-1.6-1.6L116.6,546.5z"/>
		</g>
		<g>
			
				<rect x="79.7" y="562.7" transform="matrix(1 -1.145756e-003 1.145756e-003 1 -0.6859 0.1494)" class="st43" width="100.5" height="72"/>
		</g>
	</g>
	<linearGradient id="SVGID_31_" gradientUnits="userSpaceOnUse" x1="483.6513" y1="243.1129" x2="483.6513" y2="212.9961">
		<stop  offset="0.2021" style="stop-color:#AE3871"/>
		<stop  offset="1" style="stop-color:#C2458E"/>
	</linearGradient>
	<path class="st56" d="M497.7,233.9h-28.2c-4,0-6.5-3.5-4.5-6.3l3.9-5.4h29.4l3.9,5.4C504.2,230.4,501.7,233.9,497.7,233.9z"/>
	<linearGradient id="SVGID_32_" gradientUnits="userSpaceOnUse" x1="549.656" y1="251.8159" x2="549.656" y2="191.8765">
		<stop  offset="0.2021" style="stop-color:#2291BB"/>
		<stop  offset="1" style="stop-color:#469B53"/>
	</linearGradient>
	<path class="st57" d="M562.1,233.4h-24.8c-3.5,0-5.7-3.8-4-6.9l9.4-16.3h14l9.4,16.3C567.8,229.6,565.6,233.4,562.1,233.4z"/>
	<defs>
		<filter id="Adobe_OpacityMaskFilter_16_" filterUnits="userSpaceOnUse" x="398.4" y="172.7" width="46.3" height="65.8">
			<feFlood  style="flood-color:white;flood-opacity:1" result="back"/>
			<feBlend  in="SourceGraphic" in2="back" mode="normal"/>
		</filter>
	</defs>
	<mask maskUnits="userSpaceOnUse" x="398.4" y="172.7" width="46.3" height="65.8" id="SVGID_33_">
		<g class="st58">
			<defs>
				<filter id="Adobe_OpacityMaskFilter_17_" filterUnits="userSpaceOnUse" x="398.4" y="172.7" width="46.3" height="65.8">
					<feFlood  style="flood-color:white;flood-opacity:1" result="back"/>
					<feBlend  in="SourceGraphic" in2="back" mode="normal"/>
				</filter>
			</defs>
			<mask maskUnits="userSpaceOnUse" x="398.4" y="172.7" width="46.3" height="65.8" id="SVGID_33_">
				<g class="st59">
				</g>
			</mask>
			<linearGradient id="SVGID_34_" gradientUnits="userSpaceOnUse" x1="421.527" y1="255.5259" x2="421.527" y2="84.7338">
				<stop  offset="0" style="stop-color:#808080"/>
				<stop  offset="1" style="stop-color:#000000"/>
			</linearGradient>
			<path class="st60" d="M443.8,229.1l-16.6-28.9v-22.3h1.4v-5.2h-14.1v5.2h1.4v22.3l-16.6,28.9c-2.4,4.2,0.6,9.4,5.4,9.4h16.9h16.9
				C443.2,238.5,446.2,233.3,443.8,229.1z"/>
		</g>
	</mask>
	<linearGradient id="SVGID_35_" gradientUnits="userSpaceOnUse" x1="421.527" y1="255.5259" x2="421.527" y2="84.7338">
		<stop  offset="0" style="stop-color:#3D92C7"/>
		<stop  offset="1" style="stop-color:#FFFFFF"/>
	</linearGradient>
	<path class="st61" d="M443.8,229.1l-16.6-28.9v-22.3h1.4v-5.2h-14.1v5.2h1.4v22.3l-16.6,28.9c-2.4,4.2,0.6,9.4,5.4,9.4h16.9h16.9
		C443.2,238.5,446.2,233.3,443.8,229.1z"/>
	<linearGradient id="SVGID_36_" gradientUnits="userSpaceOnUse" x1="421.5259" y1="154.7426" x2="421.5259" y2="242.0386">
		<stop  offset="0" style="stop-color:#4EA7BD"/>
		<stop  offset="1" style="stop-color:#3F549B"/>
	</linearGradient>
	<path class="st62" d="M433.6,234.8h-24.1c-3.4,0-5.6-3.7-3.9-6.7l6.6-11.5h18.6l6.6,11.5C439.1,231.1,437,234.8,433.6,234.8z"/>
	<defs>
		<filter id="Adobe_OpacityMaskFilter_18_" filterUnits="userSpaceOnUse" x="491.3" y="251.9" width="42.6" height="69.9">
			<feFlood  style="flood-color:white;flood-opacity:1" result="back"/>
			<feBlend  in="SourceGraphic" in2="back" mode="normal"/>
		</filter>
	</defs>
	<mask maskUnits="userSpaceOnUse" x="491.3" y="251.9" width="42.6" height="69.9" id="SVGID_37_">
		<g class="st63">
			<defs>
				<filter id="Adobe_OpacityMaskFilter_19_" filterUnits="userSpaceOnUse" x="491.3" y="251.9" width="42.6" height="69.9">
					<feFlood  style="flood-color:white;flood-opacity:1" result="back"/>
					<feBlend  in="SourceGraphic" in2="back" mode="normal"/>
				</filter>
			</defs>
			<mask maskUnits="userSpaceOnUse" x="491.3" y="251.9" width="42.6" height="69.9" id="SVGID_37_">
				<g class="st64">
				</g>
			</mask>
			<linearGradient id="SVGID_38_" gradientUnits="userSpaceOnUse" x1="512.587" y1="335.177" x2="512.587" y2="196.7924">
				<stop  offset="0" style="stop-color:#808080"/>
				<stop  offset="1" style="stop-color:#000000"/>
			</linearGradient>
			<path class="st65" d="M516.8,279.6v-23.9h1v-3.8h-10.5v3.8h1v23.9c-9.7,2-17,10.6-17,20.9c0,11.8,9.5,21.3,21.3,21.3
				s21.3-9.5,21.3-21.3C533.9,290.2,526.5,281.6,516.8,279.6z"/>
		</g>
	</mask>
	<linearGradient id="SVGID_39_" gradientUnits="userSpaceOnUse" x1="512.587" y1="335.177" x2="512.587" y2="196.7924">
		<stop  offset="0" style="stop-color:#3D92C7"/>
		<stop  offset="1" style="stop-color:#FFFFFF"/>
	</linearGradient>
	<path class="st66" d="M516.8,279.6v-23.9h1v-3.8h-10.5v3.8h1v23.9c-9.7,2-17,10.6-17,20.9c0,11.8,9.5,21.3,21.3,21.3
		s21.3-9.5,21.3-21.3C533.9,290.2,526.5,281.6,516.8,279.6z"/>
	<linearGradient id="SVGID_40_" gradientUnits="userSpaceOnUse" x1="512.582" y1="316.8213" x2="512.582" y2="299.8271">
		<stop  offset="0.2021" style="stop-color:#2291BB"/>
		<stop  offset="1" style="stop-color:#469B53"/>
	</linearGradient>
	<path class="st67" d="M528.7,300.7c0,8.9-7.2,16.1-16.1,16.1c-8.9,0-16.1-7.2-16.1-16.1c0-0.3,0-0.6,0-0.9h32.2
		C528.7,300.1,528.7,300.4,528.7,300.7z"/>
	<g>
		<path class="st68" d="M540,328.8h-54.8v-33.3H540V328.8z M487.8,326.2h49.6v-28.1h-49.6V326.2z"/>
	</g>
	<g>
		<path class="st68" d="M461.9,328.8h-54.8v-33.3h54.8V328.8z M409.7,326.2h49.6v-28.1h-49.6V326.2z"/>
	</g>
</g>
</svg>
