<?xml version="1.0" standalone="no"?>
<!DOCTYPE svg PUBLIC "-//W3C//DTD SVG 20010904//EN"
 "http://www.w3.org/TR/2001/REC-SVG-20010904/DTD/svg10.dtd">
<svg version="1.0" xmlns="http://www.w3.org/2000/svg"
 width="256.000000pt" height="256.000000pt" viewBox="0 0 256.000000 256.000000"
 preserveAspectRatio="xMidYMid meet">

<g transform="translate(0.000000,256.000000) scale(0.100000,-0.100000)"
fill="#000000" stroke="none">
<path d="M1116 2029 c-22 -5 -42 -12 -45 -15 -3 -4 10 -3 29 1 19 4 60 11 90
15 55 7 55 7 10 8 -25 0 -63 -4 -84 -9z"/>
<path d="M1338 2033 c12 -2 32 -2 45 0 12 2 2 4 -23 4 -25 0 -35 -2 -22 -4z"/>
<path d="M1418 2023 c6 -2 18 -2 25 0 6 3 1 5 -13 5 -14 0 -19 -2 -12 -5z"/>
<path d="M1533 1991 c42 -16 100 -42 128 -60 29 -17 54 -30 56 -27 13 13 -214
117 -251 115 -6 0 24 -13 67 -28z"/>
<path d="M944 1965 c-50 -24 -97 -52 -105 -61 -8 -10 4 -6 27 10 23 15 77 42
120 61 44 19 72 35 64 35 -8 0 -56 -20 -106 -45z"/>
<path d="M1882 1735 c49 -68 105 -182 120 -244 6 -28 15 -51 19 -51 8 0 -20
94 -46 155 -20 47 -101 171 -118 182 -6 4 5 -15 25 -42z"/>
<path d="M659 1728 c-31 -44 -89 -151 -89 -165 0 -4 17 24 38 62 20 39 50 87
66 108 15 20 26 37 22 37 -3 0 -20 -19 -37 -42z"/>
<path d="M1321 1586 c-12 -14 -5 -26 16 -26 15 0 18 26 4 34 -5 3 -14 0 -20
-8z"/>
<path d="M996 1577 c-23 -17 -20 -112 4 -112 10 0 16 13 18 43 l3 42 114 0
c88 0 114 3 118 14 3 8 3 17 0 20 -13 12 -239 6 -257 -7z"/>
<path d="M1464 1535 c-10 -25 4 -45 30 -45 25 0 39 20 30 45 -4 8 -17 15 -30
15 -14 0 -27 -7 -30 -15z"/>
<path d="M541 1474 c0 -11 3 -14 6 -6 3 7 2 16 -1 19 -3 4 -6 -2 -5 -13z"/>
<path d="M1323 1443 c-16 -6 -17 -39 -2 -49 6 -3 18 1 27 10 14 14 14 18 2 30
-8 7 -21 12 -27 9z"/>
<path d="M952 1423 c-9 -17 -9 -28 0 -47 13 -29 28 -34 28 -10 0 12 7 15 30
12 17 -3 33 -1 36 4 8 13 -5 58 -16 58 -5 0 -7 -6 -4 -13 6 -18 -21 -41 -40
-34 -8 3 -16 16 -18 29 l-3 23 -13 -22z"/>
<path d="M1530 1404 c0 -17 6 -24 20 -24 13 0 20 7 20 19 0 10 -9 21 -20 24
-16 4 -20 0 -20 -19z"/>
<path d="M1013 1285 c0 -38 2 -53 4 -32 2 20 2 52 0 70 -2 17 -4 1 -4 -38z"/>
<path d="M1545 1287 c-4 -10 -5 -21 -1 -24 10 -10 18 4 13 24 -4 17 -4 17 -12
0z"/>
<path d="M1535 1210 c-7 -23 -25 -27 -25 -5 0 8 -7 15 -15 15 -8 0 -15 -7 -15
-15 0 -20 -17 -19 -28 1 -8 15 -10 15 -15 0 -8 -20 -27 -21 -27 -1 0 8 -7 15
-15 15 -8 0 -15 -7 -15 -15 0 -8 -5 -15 -10 -15 -6 0 -13 7 -16 15 -4 8 -12
15 -19 15 -7 0 -15 -7 -19 -15 -3 -8 -10 -15 -16 -15 -5 0 -10 7 -10 15 0 20
-17 19 -38 -1 -14 -15 -17 -15 -27 0 -16 21 -75 22 -75 1 0 -10 -10 -15 -30
-15 -20 0 -30 5 -30 15 0 21 -23 19 -62 -5 l-33 -20 276 0 c278 0 299 3 299
37 0 21 -28 15 -35 -7z"/>
<path d="M1183 1130 c-9 -23 -18 -30 -37 -30 -14 0 -26 -4 -26 -10 0 -6 58
-10 155 -10 97 0 155 4 155 10 0 6 -13 10 -29 10 -23 0 -31 6 -40 30 -10 30
-10 30 -88 30 -78 0 -79 0 -90 -30z"/>
<path d="M490 1121 c25 -3 83 -3 130 0 76 5 72 6 -45 6 -73 0 -110 -2 -85 -6z"/>
<path d="M1928 1123 c93 -4 91 -2 63 -84 -66 -193 -197 -341 -386 -435 -49
-25 -79 -42 -65 -38 42 11 122 54 185 99 130 92 226 224 280 385 22 65 22 65
66 71 24 3 -17 6 -91 5 -78 0 -100 -1 -52 -3z"/>
<path d="M541 1094 c-1 -15 30 -106 35 -101 2 2 -5 28 -15 58 -11 30 -20 49
-20 43z"/>
<path d="M585 965 c17 -54 79 -139 160 -220 69 -70 109 -100 173 -134 46 -23
85 -41 87 -39 2 2 -34 23 -80 46 -127 66 -236 173 -317 315 -16 28 -27 43 -23
32z"/>
<path d="M970 826 c0 -3 9 -10 20 -16 11 -6 20 -8 20 -6 0 3 -9 10 -20 16 -11
6 -20 8 -20 6z"/>
<path d="M1540 805 c-68 -39 -139 -58 -245 -65 l-110 -7 85 -1 c99 -2 175 15
258 57 31 17 53 30 47 30 -5 0 -21 -6 -35 -14z"/>
<path d="M1027 789 c7 -7 15 -10 18 -7 3 3 -2 9 -12 12 -14 6 -15 5 -6 -5z"/>
<path d="M1125 750 c11 -5 29 -8 40 -8 16 0 15 2 -5 8 -34 11 -60 11 -35 0z"/>
<path d="M1465 550 c-13 -5 -14 -9 -5 -9 8 0 24 4 35 9 13 5 14 9 5 9 -8 0
-24 -4 -35 -9z"/>
<path d="M1088 543 c7 -3 16 -2 19 1 4 3 -2 6 -13 5 -11 0 -14 -3 -6 -6z"/>
<path d="M1133 533 c9 -2 23 -2 30 0 6 3 -1 5 -18 5 -16 0 -22 -2 -12 -5z"/>
<path d="M1398 533 c6 -2 18 -2 25 0 6 3 1 5 -13 5 -14 0 -19 -2 -12 -5z"/>
<path d="M1228 523 c28 -2 76 -2 105 0 28 2 5 3 -53 3 -58 0 -81 -1 -52 -3z"/>
</g>
</svg>
